Coordinates
version=1
nRows=32
nColumns=12
inDegrees=yes

Units are S.I. units (second, meters, Newtons, ...)
Angles are in degrees

endheader
time	SC_y	SC_z	SC_x	AC_y	AC_z	AC_x	GH_y	GH_z	GH_yy	EL_x	PS_y
       0.0               -31.0         -2.409          82.13          50.74          7.847         -15.05         -118.6          15.88           76.5          29.38          32.51
   0.03836              -30.99         -2.404          82.13          50.74          7.845         -15.05         -118.6          15.89          76.47          29.39          32.53
   0.07672              -30.99         -2.398          82.12          50.74          7.843         -15.05         -118.6           15.9          76.43          29.39          32.55
    0.1151              -30.99         -2.392          82.12          50.74          7.841         -15.05         -118.6          15.91          76.39          29.39          32.57
    0.1534              -30.99         -2.386          82.11          50.75          7.838         -15.05         -118.6          15.92          76.35          29.39          32.59
    0.1918              -30.98         -2.379          82.11          50.75          7.836         -15.05         -118.6          15.94          76.31           29.4          32.61
    0.2302              -30.98         -2.372           82.1          50.75          7.833         -15.05         -118.6          15.95          76.27           29.4          32.64
    0.2685              -30.98         -2.364           82.1          50.75           7.83         -15.05         -118.7          15.97          76.22           29.4          32.66
    0.3069              -30.98         -2.355          82.09          50.76          7.827         -15.05         -118.7          15.98          76.17          29.41          32.69
    0.3452              -30.97         -2.346          82.08          50.76          7.824         -15.05         -118.7           16.0          76.11          29.41          32.72
    0.3836              -30.97         -2.337          82.07          50.77           7.82         -15.05         -118.7          16.02          76.05          29.41          32.75
     0.422              -30.96         -2.326          82.06          50.77          7.816         -15.05         -118.7          16.04          75.99          29.42          32.79
    0.4603              -30.96         -2.315          82.05          50.77          7.812         -15.05         -118.7          16.06          75.92          29.42          32.83
    0.4987              -30.96         -2.303          82.04          50.78          7.808         -15.05         -118.7          16.08          75.85          29.43          32.87
     0.537              -30.95          -2.29          82.03          50.78          7.803         -15.05         -118.7          16.11          75.77          29.43          32.91
    0.5754              -30.94         -2.276          82.02          50.79          7.797         -15.04         -118.7          16.13          75.68          29.44          32.96
    0.6137              -30.94         -2.261          82.01          50.79          7.792         -15.04         -118.7          16.16          75.59          29.45          33.01
    0.6521              -30.93         -2.244          81.99           50.8          7.786         -15.04         -118.7          16.19          75.48          29.45          33.07
    0.6905              -30.93         -2.226          81.98          50.81          7.779         -15.04         -118.7          16.23          75.37          29.46          33.13
    0.7288              -30.92         -2.205          81.96          50.82          7.771         -15.04         -118.8          16.27          75.25          29.47          33.19
    0.7672              -30.91         -2.183          81.94          50.82          7.763         -15.04         -118.8          16.31          75.11          29.48          33.27
    0.8055               -30.9         -2.159          81.92          50.83          7.754         -15.04         -118.8          16.36          74.97          29.49          33.35
    0.8439              -30.89         -2.132           81.9          50.84          7.744         -15.04         -118.8          16.41           74.8           29.5          33.44
    0.8823              -30.88         -2.103          81.87          50.86          7.733         -15.04         -118.8          16.46          74.62          29.51          33.54
    0.9206              -30.87          -2.07          81.85          50.87          7.721         -15.04         -118.9          16.53          74.42          29.52          33.65
     0.959              -30.85         -2.033          81.82          50.88          7.707         -15.04         -118.9           16.6          74.19          29.54          33.77
    0.9973              -30.84         -1.992          81.78           50.9          7.692         -15.03         -118.9          16.67          73.94          29.56          33.91
     1.036              -30.82         -1.946          81.74          50.92          7.674         -15.03         -118.9          16.76          73.65          29.58          34.06
     1.074               -30.8         -1.893           81.7          50.94          7.655         -15.03         -119.0          16.86          73.33           29.6          34.24
     1.112              -30.77         -1.834          81.65          50.96          7.633         -15.03         -119.0          16.98          72.97          29.62          34.44
     1.151              -30.75         -1.766          81.59          50.99          7.607         -15.03         -119.1           17.1          72.55          29.65          34.66
     1.189              -30.72         -1.688          81.52          51.02          7.578         -15.02         -119.1          17.25          72.07          29.68          34.92
